{"title":"Passenger - Let Her Go [Music Video] 1080p [Sbyky]","uid":9530709,"size":90870389,"categoryP":"video","categoryS":"music_videos","magnet":"?xt=urn:btih:16a39ef66ec2f4e935830cb98849cf00758b92cb&amp;dn=Passenger+-+Let+Her+Go+%5BMusic+Video%5D+1080p+%5BSbyky%5D&amp;tr=udp%3A%2F%2Ftracker.openbittorrent.com%3A80&amp;tr=udp%3A%2F%2Fopen.demonii.com%3A1337&amp;tr=udp%3A%2F%2Ftracker.coppersurfer.tk%3A6969&amp;tr=udp%3A%2F%2Fexodus.desync.com%3A6969","seeders":6,"leechers":1,"uploader":"Sbyky","files":1,"time":1390838209,"description":"\n\nGeneral\nComplete name                            : Passenger - Let Her Go [Music Video] 1080p [Sbyky].MP4\nFormat                                   : MPEG-4\nFormat profile                           : Base Media\nCodec ID                                 : isom\nFile size                                : 86.7 MiB\nDuration                                 : 4mn 14s\nOverall bit rate mode                    : Variable\nOverall bit rate                         : 2 860 Kbps\nEncoded date                             : UTC 2013-09-16 06:19:46\nTagged date                              : UTC 2013-09-16 06:19:46\n\nVideo\nID                                       : 1\nFormat                                   : AVC\nFormat/Info                              : Advanced Video Codec\nFormat profile                           : &lt;a class=&quot;__cf_email__&quot; href=&quot;/cdn-cgi/l/email-protection&quot; data-cfemail=&quot;eea6878986aea2dac0de&quot;&gt;[email&amp;#160;protected]&lt;/a&gt;&lt;script cf-hash='f9e31' type=&quot;text/javascript&quot;&gt;\n/* &lt;![CDATA[ */!function(){try{var t=&quot;currentScript&quot;in document?document.currentScript:function(){for(var t=document.getElementsByTagName(&quot;script&quot;),e=t.length;e--;)if(t[e].getAttribute(&quot;cf-hash&quot;))return t[e]}();if(t&amp;&amp;t.previousSibling){var e,r,n,i,c=t.previousSibling,a=c.getAttribute(&quot;data-cfemail&quot;);if(a){for(e=&quot;&quot;,r=parseInt(a.substr(0,2),16),n=2;a.length-n;n+=2)i=parseInt(a.substr(n,2),16)^r,e+=String.fromCharCode(i);e=document.createTextNode(e),c.parentNode.replaceChild(e,c)}}}catch(u){}}();/* ]]&gt; */&lt;/script&gt;\nFormat settings, CABAC                   : Yes\nFormat settings, ReFrames                : 2 frames\nCodec ID                                 : avc1\nCodec ID/Info                            : Advanced Video Coding\nDuration                                 : 4mn 14s\nBit rate                                 : 2 732 Kbps\nWidth                                    : 1 920 pixels\nHeight                                   : 1 080 pixels\nDisplay aspect ratio                     : 16:9\nFrame rate mode                          : Constant\nFrame rate                               : 25.000 fps\nColor space                              : YUV\nChroma subsampling                       : 4:2:0\nBit depth                                : 8 bits\nScan type                                : Progressive\nBits/(Pixel*Frame)                       : 0.053\nStream size                              : 82.8 MiB (96%)\nEncoded date                             : UTC 2013-09-16 06:19:46\nTagged date                              : UTC 2013-09-16 06:19:46\n\nAudio\nID                                       : 2\nFormat                                   : AAC\nFormat/Info                              : Advanced Audio Codec\nFormat profile                           : LC\nCodec ID                                 : 40\nDuration                                 : 4mn 14s\nBit rate mode                            : Variable\nBit rate                                 : 126 Kbps\nChannel(s)                               : 2 channels\nChannel positions                        : Front: L R\nSampling rate                            : 44.1 KHz\nCompression mode                         : Lossy\nDelay relative to video                  : 40ms\nStream size                              : 3.81 MiB (4%)\nEncoded date                             : UTC 2013-12-03 06:18:19\nTagged date                              : UTC 2013-12-03 06:18:19\n\nShared By Sbyky\n","torrent":{"xt":"urn:btih:16a39ef66ec2f4e935830cb98849cf00758b92cb","amp;dn":"Passenger+-+Let+Her+Go+%5BMusic+Video%5D+1080p+%5BSbyky%5D","amp;tr":["udp%3A%2F%2Ftracker.openbittorrent.com%3A80","udp%3A%2F%2Fopen.demonii.com%3A1337","udp%3A%2F%2Ftracker.coppersurfer.tk%3A6969","udp%3A%2F%2Fexodus.desync.com%3A6969"],"infoHash":"16a39ef66ec2f4e935830cb98849cf00758b92cb","infoHashBuffer":{"type":"Buffer","data":[22,163,158,246,110,194,244,233,53,131,12,185,136,73,207,0,117,139,146,203]},"announce":[],"urlList":[]}}